<svg width="230" height="80" fill="none" xmlns="http://www.w3.org/2000/svg"><path d="M9.541 58.356v6.94h6.313v.904H9.541v6.496h8.066v.928H8.621V57.476h9.2v.88h-8.28Z" fill="#434142"/><path d="m26.37 63.63 1.159.976v-8.423h.904v17.385h-.904v-2.22l-1.158.967c-.992.81-2.173 1.245-3.419 1.245-2.982 0-5.433-2.522-5.433-5.591 0-3.077 2.451-5.6 5.433-5.6 1.245.008 2.427.453 3.419 1.262Zm1.087 4.942v-1.206c-.301-2.355-2.197-3.926-4.505-3.926-2.546 0-4.48 1.943-4.48 4.529 0 2.585 1.942 4.6 4.48 4.6 2.308.008 4.204-1.634 4.505-3.997Zm2.561-.484c-.047-.373-.024-.603.024-6.083h.88v6.218c.23 2.45 2.475 4.393 4.576 4.393 2.078 0 4.07-1.57 4.553-3.95v-6.661h.88V73.56h-.88v-2.474s-.65.785-1.245 1.269c-.944.761-2.102 1.197-3.307 1.197-1.896 0-3.633-1.039-4.648-2.8a6.077 6.077 0 0 1-.833-2.664Zm21.349-5.298-.436.88a4.81 4.81 0 0 0-2.633-.761 4.854 4.854 0 0 0-4.854 4.854c0 2.657 2.173 4.853 4.854 4.853a4.74 4.74 0 0 0 2.657-.808l.413.904a5.802 5.802 0 0 1-3.078.88 5.834 5.834 0 0 1-5.83-5.83 5.832 5.832 0 0 1 5.83-5.845c1.095 0 2.157.302 3.078.873Zm11.076 10.802v-2.268l-1.206.991a5.418 5.418 0 0 1-3.513 1.27c-3.077 0-5.568-2.594-5.568-5.759 0-3.188 2.498-5.758 5.568-5.758a5.41 5.41 0 0 1 3.513 1.27l1.206.998v-2.292h.991v11.532h-.991v.016Zm-.12-6.29v-.095c-.324-2.426-2.22-4.116-4.6-4.116-2.608 0-4.6 2.062-4.6 4.743 0 2.68 1.992 4.719 4.6 4.719 2.38 0 4.276-1.69 4.6-4.092v-1.158Zm6.796 9.756.388-.785c.397.325.603.388.81.388a.927.927 0 0 0 .927-.92.93.93 0 0 0-.928-.928c-.206 0-.412.072-.809.397l-.436-.944.206-.904c-2.427-.69-4.187-2.935-4.187-5.6a5.805 5.805 0 0 1 5.805-5.82c1.11 0 2.15.3 3.054.856l-.389.904c-.809-.508-1.69-.785-2.657-.785-2.657 0-4.854 2.173-4.854 4.853 0 2.681 2.197 4.83 4.854 4.83.968 0 1.872-.277 2.681-.785l.397.904a5.741 5.741 0 0 1-3.078.88c-.254 0-.484-.023-.714-.047l-.07.35c1.244.047 2.037.856 2.037 1.847a1.83 1.83 0 0 1-1.824 1.824c-.476-.008-.753-.119-1.213-.515Zm17.051-3.466v-2.268l-1.206.991a5.419 5.419 0 0 1-3.514 1.269c-3.077 0-5.567-2.594-5.567-5.758 0-3.188 2.498-5.758 5.567-5.758a5.42 5.42 0 0 1 3.514 1.269l1.205 1v-2.293h.992v11.532h-.992v.016Zm-.12-6.29v-.095c-.325-2.426-2.22-4.116-4.6-4.116-2.609 0-4.6 2.062-4.6 4.743 0 2.68 1.991 4.719 4.6 4.719 2.38 0 4.275-1.69 4.6-4.093v-1.157Zm-6.519-8.993c-.579 0-1.158.23-1.594.65l-.69-.698a3.297 3.297 0 0 1 2.292-.944c.738 0 1.46.254 2.038.714.762.714 1.388.992 2.03.992a2.29 2.29 0 0 0 1.595-.627l.69.698a3.258 3.258 0 0 1-2.292.904c-.738 0-1.46-.254-2.332-.928a2.405 2.405 0 0 0-1.737-.761Zm21.034 9.43c0 3.236-2.57 5.877-5.687 5.877-3.14 0-5.71-2.633-5.71-5.877 0-3.244 2.57-5.877 5.71-5.877 3.125.008 5.687 2.641 5.687 5.877Zm-.857 0c0-2.728-2.173-4.949-4.83-4.949-2.68 0-4.853 2.22-4.853 4.949 0 2.728 2.173 4.949 4.853 4.949 2.657 0 4.83-2.22 4.83-4.949Zm20.731.421h-10.493c.412 3.053 2.705 4.528 4.83 4.528.857 0 1.761-.302 2.498-.714l1.388.024a5.641 5.641 0 0 1-3.886 1.57c-3.117 0-5.663-2.61-5.663-5.845 0-3.212 2.546-5.853 5.663-5.853 3.188 0 5.591 2.752 5.663 6.29Zm-.928-.881c-.603-3.03-2.609-4.553-4.743-4.553-2.125 0-4.346 1.34-4.806 4.553h9.549Zm22.717-8.946h-6.011v15.354h-.904V58.333h-6.012v-.928h12.919v.928h.008Zm8.668 9.827h-10.493c.412 3.053 2.705 4.528 4.83 4.528.857 0 1.761-.302 2.498-.714l1.388.024a5.641 5.641 0 0 1-3.886 1.57c-3.117 0-5.663-2.61-5.663-5.845 0-3.212 2.546-5.853 5.663-5.853 3.188 0 5.591 2.752 5.663 6.29Zm-.928-.881c-.603-3.03-2.609-4.553-4.743-4.553-2.125 0-4.346 1.34-4.806 4.553h9.549Zm11.364-4.489-.436.88a4.81 4.81 0 0 0-2.633-.761 4.854 4.854 0 0 0-4.854 4.854c0 2.657 2.173 4.853 4.854 4.853a4.74 4.74 0 0 0 2.657-.808l.412.904a5.8 5.8 0 0 1-3.077.88 5.833 5.833 0 0 1-5.829-5.83 5.832 5.832 0 0 1 5.829-5.845c1.095 0 2.157.302 3.077.873Zm2.403 3.474.024 7.328h-.88V62.076h.88v2.356s.579-.81 1.158-1.27c.904-.713 1.991-1.133 3.101-1.133 1.777 0 3.403.99 4.346 2.633.437.737.714 1.594.786 2.474 0 .397.047 1.293-.024 6.424h-.833l-.024-6.725c-.182-2.078-2.292-3.974-4.251-3.974-1.951 0-3.704 1.412-4.283 3.403Zm22.279 1.475c0 3.236-2.57 5.877-5.686 5.877-3.141 0-5.711-2.633-5.711-5.877 0-3.244 2.57-5.877 5.711-5.877 3.116.008 5.686 2.641 5.686 5.877Zm-.856 0c0-2.728-2.174-4.949-4.83-4.949-2.681 0-4.854 2.22-4.854 4.949 0 2.728 2.173 4.949 4.854 4.949 2.656 0 4.83-2.22 4.83-4.949Zm3.298-11.556v17.385h-.991V56.183h.991Zm13.039 11.556c0 3.236-2.57 5.877-5.687 5.877-3.141 0-5.71-2.633-5.71-5.877 0-3.244 2.569-5.877 5.71-5.877 3.117.008 5.687 2.641 5.687 5.877Zm-.857 0c0-2.728-2.173-4.949-4.83-4.949-2.681 0-4.854 2.22-4.854 4.949 0 2.728 2.173 4.949 4.854 4.949 2.657 0 4.83-2.22 4.83-4.949Zm11.809 11.056c-1.015.785-2.197 1.205-3.466 1.205a5.546 5.546 0 0 1-4.441-2.22l.325-.556v.024l.158-.301c.881 1.316 2.356 2.15 3.95 2.15 2.149 0 4.513-1.992 4.672-4.228v-1.824l-.024-1.8-1.23 1.014-.023.024a5.579 5.579 0 0 1-3.514 1.245c-1.205 0-2.355-.396-3.355-1.134a5.411 5.411 0 0 1-1.522-1.729 6.04 6.04 0 0 1-.786-2.958c0-3.236 2.546-5.853 5.663-5.853 1.317 0 2.546.436 3.561 1.293l1.222 1.015v-2.308h.904v12.325c.008 1.792-.706 3.481-2.094 4.616Zm1.174-11.746c-.302-2.45-2.356-4.275-4.767-4.275-2.657 0-4.806 2.197-4.806 4.925 0 .508.095 1.04.254 1.547a4.783 4.783 0 0 0 1.57 2.308 4.687 4.687 0 0 0 2.982 1.062c1.134 0 2.245-.436 3.125-1.181.714-.627 1.221-1.46 1.507-2.38.071-.253.119-.507.135-.737v-1.27ZM216 57.96c0-.302.254-.532.531-.532.302 0 .532.23.532.532 0 .277-.23.507-.532.507-.277 0-.531-.23-.531-.507Zm.92 4.069v11.603h-.928V62.028h.928Zm11.796 11.563v-2.268l-1.205.991a5.42 5.42 0 0 1-3.514 1.27c-3.077 0-5.567-2.594-5.567-5.759 0-3.188 2.498-5.758 5.567-5.758a5.42 5.42 0 0 1 3.514 1.27l1.205.998v-2.292h.992v11.532h-.992v.016Zm-.119-6.29v-.095c-.325-2.426-2.22-4.116-4.6-4.116-2.609 0-4.6 2.062-4.6 4.743 0 2.68 1.991 4.719 4.6 4.719 2.38 0 4.275-1.69 4.6-4.092v-1.158ZM23.904 30.384V2.839h-2.482v26.855c0 6.178-4.965 11.087-11.318 11.198-4.1-.055-6.932-1.959-9.01-3.981L0 38.814c2.538 2.832 6.06 4.505 9.93 4.56h.23c7.51-.11 13.403-5.718 13.744-12.99Zm71.719-9.121v-6.757h-1.967v28.988h1.967V26.807c1.04-5.258 5.021-9.763 10.223-10.223v-2.078c-2.712.285-5.195 1.213-7.217 3.061-1.792 1.674-3.006 3.696-3.006 3.696Zm37.427 5.369.055 16.862h2.078c.175-12.825.056-15.133.056-16.108a14.385 14.385 0 0 0-1.967-6.186c-2.371-4.1-6.408-6.583-10.858-6.583-2.768 0-5.488 1.039-7.74 2.831-1.444 1.158-2.887 3.18-2.887 3.18v-5.892h-2.197v28.758h2.197l-.056-18.305c1.444-4.965 5.83-8.486 10.683-8.486 4.918 0 10.176 4.734 10.636 9.93Zm31.549 16.862h2.482V14.68h-2.482v5.718l-3.006-2.49c-2.482-2.078-5.544-3.172-8.779-3.172-7.678 0-13.919 6.408-13.919 14.379 0 7.907 6.233 14.379 13.919 14.379 3.235 0 6.289-1.095 8.779-3.173l3.006-2.49v5.663Zm-.293-15.712v2.887c-.809 6.004-5.544 10.215-11.492 10.215-6.528 0-11.493-5.075-11.493-11.777 0-6.702 4.965-11.841 11.493-11.841 5.948 0 10.683 4.219 11.492 10.278v.238Zm19.94 15.648c3.117 0 6.059-1.102 8.541-3.117l2.887-2.427v5.544h2.253V.008h-2.253v21.025l-2.887-2.427c-2.482-2.022-5.424-3.117-8.541-3.117-7.447 0-13.57 6.29-13.57 13.975 0 7.677 6.123 13.966 13.57 13.966Zm0-25.284c5.774 0 10.508 3.926 11.262 9.81v3.007c-.754 5.892-5.488 9.993-11.262 9.993-6.353 0-11.199-5.029-11.199-11.492 0-6.472 4.846-11.318 11.199-11.318Zm43.271-3.466v5.718l-3.006-2.49c-2.482-2.078-5.544-3.172-8.78-3.172-7.677 0-13.919 6.408-13.919 14.379 0 7.907 6.234 14.379 13.919 14.379 3.236 0 6.298-1.095 8.78-3.173l3.006-2.49v5.663h2.482V14.68h-2.482Zm-.286 13.102v2.887c-.808 6.004-5.543 10.215-11.492 10.215-6.527 0-11.492-5.075-11.492-11.777 0-6.702 4.965-11.841 11.492-11.841 5.949 0 10.684 4.219 11.492 10.278v.238ZM87.124 21.866c-.072-.024-.151-.056-.222-.08-.135-.888-.556-1.689-1.254-2.268a3.643 3.643 0 0 0-2.688-.825 3.672 3.672 0 0 0-2.483 1.317 3.68 3.68 0 0 0 .492 5.17 3.659 3.659 0 0 0 2.689.826 3.672 3.672 0 0 0 2.482-1.317c.183-.222.278-.492.405-.745 1.903.753 2.133 1.316 2.133 1.316-.166.936-4.005 2.364-11.103 3.347.079-.714.135-1.435.135-2.173 0-10.303-8.384-18.694-18.694-18.694-7.955 0-14.752 5.013-17.44 12.032C28.418 21.548 28.41 24.34 28.41 25.26c0 2.713 5.56 4.378 12.404 5.354C42.726 38.91 50.15 45.12 59.016 45.12c8.804 0 16.187-6.131 18.154-14.332 7.4-.952 13.641-2.657 13.641-5.528.008-1.998-2.775-3.045-3.687-3.394Zm-2.633 1.459a1.515 1.515 0 0 1-1.04.547 1.545 1.545 0 0 1-1.118-.34 1.534 1.534 0 0 1-.206-2.158 1.515 1.515 0 0 1 1.039-.547c.048-.008.095-.008.15-.008.358 0 .699.119.976.349.317.261.508.626.547 1.039.032.404-.087.809-.349 1.118Zm-44.16 3.109c0 .674.04 1.34.11 1.999-6.32-.968-9.73-2.285-9.89-3.165.088-.476 2.253-2.03 10.319-3.22a18.657 18.657 0 0 0-.54 4.386Zm18.693 16.552c-7.558 0-13.88-5.123-15.854-12.063 5.702.666 11.92.912 16.449.912 4.203 0 9.866-.214 15.22-.777-2.023 6.876-8.304 11.928-15.815 11.928Zm16.298-14.093c-4.275.483-9.517.808-15.711.808-6.781 0-12.436-.388-16.91-.951-.11-.762-.237-1.523-.237-2.316 0-9.129 7.423-16.552 16.552-16.552s16.552 7.423 16.552 16.552c.008.84-.119 1.65-.246 2.459Z" fill="#434142"/></svg>